<svg xmlns="http://www.w3.org/2000/svg" viewBox="0 0 512 512">
  <rect width="512" height="512" rx="112" fill="#101510"/>
  <path d="M122 138h268v236H122z" fill="#f4efe5"/>
  <path d="M160 174h192v164H160z" fill="#b53c49"/>
  <path d="M190 255c0-42 29-76 66-76s66 34 66 76-29 76-66 76-66-34-66-76Z" fill="#101510" opacity=".88"/>
  <path d="M255 210c-17 0-31 16-31 36v18c0 20 14 36 31 36s31-16 31-36v-18c0-20-14-36-31-36Z" fill="#f0c86b"/>
  <path d="M154 134l204 0 32 40H122l32-40Z" fill="#f0c86b"/>
  <path d="M197 356h118" stroke="#101510" stroke-width="18" stroke-linecap="round"/>
</svg>
